<?xml version="1.0" encoding="utf-8"?>
<!-- Generator: Adobe Illustrator 17.0.0, SVG Export Plug-In . SVG Version: 6.00 Build 0)  -->
<!DOCTYPE svg PUBLIC "-//W3C//DTD SVG 1.1//EN" "http://www.w3.org/Graphics/SVG/1.1/DTD/svg11.dtd">
<svg version="1.1" id="Layer_1" xmlns="http://www.w3.org/2000/svg" xmlns:xlink="http://www.w3.org/1999/xlink" x="0px" y="0px"
	 width="150px" height="173.777px" viewBox="0 0 150 173.777" enable-background="new 0 0 150 173.777" xml:space="preserve">
<g>
	<defs>
		<polygon id="SVGID_1_" points="75,0 0,43.445 0,130.333 75,173.777 150,130.333 150,43.445 		"/>
	</defs>
	<clipPath id="SVGID_2_">
		<use xlink:href="#SVGID_1_"  overflow="visible"/>
	</clipPath>
	<g clip-path="url(#SVGID_2_)">
		<defs>
			<rect id="SVGID_3_" x="-283" y="-2547" width="1440" height="7540"/>
		</defs>
		<clipPath id="SVGID_4_">
			<use xlink:href="#SVGID_3_"  overflow="visible"/>
		</clipPath>
		<rect x="-5" y="-5" clip-path="url(#SVGID_4_)" fill="#0750A1" width="160" height="183.777"/>
	</g>
</g>
<g>
	<defs>
		<polygon id="SVGID_5_" points="39.433,66.311 75,45.734 110.567,66.311 110.567,107.466 75,128.044 39.433,107.466 		"/>
	</defs>
	<clipPath id="SVGID_6_">
		<use xlink:href="#SVGID_5_"  overflow="visible"/>
	</clipPath>
	<g clip-path="url(#SVGID_6_)">
		<defs>
			<rect id="SVGID_7_" x="-283" y="-2547" width="1440" height="7540"/>
		</defs>
		<clipPath id="SVGID_8_">
			<use xlink:href="#SVGID_7_"  overflow="visible"/>
		</clipPath>
		<rect x="34.433" y="40.734" clip-path="url(#SVGID_8_)" fill="#FFFFFF" width="81.134" height="92.31"/>
	</g>
</g>
<g>
	<defs>
		<path id="SVGID_9_" d="M84.298,92.578c0,2.067-0.78,3.882-2.339,5.445c-1.56,1.563-3.628,2.447-6.205,2.655v3.139h-2.242v-3.139
			c-2.629-0.181-4.736-0.955-6.321-2.325c-1.585-1.369-2.378-3.216-2.378-5.542h5.799c0.155,1.964,1.121,3.113,2.899,3.449v-7.402
			c-2.629-0.698-4.407-1.304-5.335-1.821c-2.242-1.24-3.363-3.216-3.363-5.929c0-2.248,0.818-4.101,2.455-5.561
			c1.636-1.459,3.718-2.292,6.244-2.5v-3.139h2.242v3.139c2.5,0.155,4.491,0.872,5.973,2.151c1.482,1.278,2.287,3.133,2.416,5.561
			H78.46c-0.077-0.775-0.355-1.446-0.831-2.015c-0.477-0.568-1.102-0.969-1.875-1.201v7.324c2.629,0.672,4.433,1.292,5.412,1.861
			C83.254,87.966,84.298,89.917,84.298,92.578 M70.458,80.758c0,1.602,1.018,2.751,3.054,3.449v-6.743
			C71.476,77.774,70.458,78.873,70.458,80.758 M78.692,92.888c0-1.498-0.98-2.622-2.938-3.371v6.743
			c0.928-0.181,1.649-0.575,2.165-1.182C78.434,94.47,78.692,93.74,78.692,92.888"/>
	</defs>
	<clipPath id="SVGID_10_">
		<use xlink:href="#SVGID_9_"  overflow="visible"/>
	</clipPath>
	<g clip-path="url(#SVGID_10_)">
		<defs>
			<rect id="SVGID_11_" x="-283" y="-2547" width="1440" height="7540"/>
		</defs>
		<clipPath id="SVGID_12_">
			<use xlink:href="#SVGID_11_"  overflow="visible"/>
		</clipPath>
		<rect x="59.813" y="64.908" clip-path="url(#SVGID_12_)" fill="#0750A1" width="29.485" height="43.908"/>
	</g>
</g>
<g>
	<defs>
		<polygon id="SVGID_13_" points="75,0 0,43.445 0,130.333 75,173.777 150,130.333 150,43.445 		"/>
	</defs>
	<clipPath id="SVGID_14_">
		<use xlink:href="#SVGID_13_"  overflow="visible"/>
	</clipPath>
	<g clip-path="url(#SVGID_14_)">
		<defs>
			<rect id="SVGID_15_" x="-283" y="-2547" width="1440" height="7540"/>
		</defs>
		<clipPath id="SVGID_16_">
			<use xlink:href="#SVGID_15_"  overflow="visible"/>
		</clipPath>
		<rect x="-5" y="-5" clip-path="url(#SVGID_16_)" fill="#0750A1" width="160" height="183.777"/>
	</g>
</g>
<g>
	<defs>
		<polygon id="SVGID_17_" points="39.433,66.311 75,45.734 110.567,66.311 110.567,107.466 75,128.044 39.433,107.466 		"/>
	</defs>
	<clipPath id="SVGID_18_">
		<use xlink:href="#SVGID_17_"  overflow="visible"/>
	</clipPath>
	<g clip-path="url(#SVGID_18_)">
		<defs>
			<rect id="SVGID_19_" x="-283" y="-2547" width="1440" height="7540"/>
		</defs>
		<clipPath id="SVGID_20_">
			<use xlink:href="#SVGID_19_"  overflow="visible"/>
		</clipPath>
		<rect x="34.433" y="40.734" clip-path="url(#SVGID_20_)" fill="#FFFFFF" width="81.134" height="92.31"/>
	</g>
</g>
<g>
	<defs>
		<path id="SVGID_21_" d="M84.298,92.578c0,2.067-0.78,3.882-2.339,5.445c-1.56,1.563-3.628,2.447-6.205,2.655v3.139h-2.242v-3.139
			c-2.629-0.181-4.736-0.955-6.321-2.325c-1.585-1.369-2.378-3.216-2.378-5.542h5.799c0.155,1.964,1.121,3.113,2.899,3.449v-7.402
			c-2.629-0.698-4.407-1.304-5.335-1.821c-2.242-1.24-3.363-3.216-3.363-5.929c0-2.248,0.818-4.101,2.455-5.561
			c1.636-1.459,3.718-2.292,6.244-2.5v-3.139h2.242v3.139c2.5,0.155,4.491,0.872,5.973,2.151c1.482,1.278,2.287,3.133,2.416,5.561
			H78.46c-0.077-0.775-0.355-1.446-0.831-2.015c-0.477-0.568-1.102-0.969-1.875-1.201v7.324c2.629,0.672,4.433,1.292,5.412,1.861
			C83.254,87.966,84.298,89.917,84.298,92.578 M70.458,80.758c0,1.602,1.018,2.751,3.054,3.449v-6.743
			C71.476,77.774,70.458,78.873,70.458,80.758 M78.692,92.888c0-1.498-0.98-2.622-2.938-3.371v6.743
			c0.928-0.181,1.649-0.575,2.165-1.182C78.434,94.47,78.692,93.74,78.692,92.888"/>
	</defs>
	<clipPath id="SVGID_22_">
		<use xlink:href="#SVGID_21_"  overflow="visible"/>
	</clipPath>
	<g clip-path="url(#SVGID_22_)">
		<defs>
			<rect id="SVGID_23_" x="-283" y="-2547" width="1440" height="7540"/>
		</defs>
		<clipPath id="SVGID_24_">
			<use xlink:href="#SVGID_23_"  overflow="visible"/>
		</clipPath>
		<rect x="59.813" y="64.908" clip-path="url(#SVGID_24_)" fill="#0750A1" width="29.485" height="43.908"/>
	</g>
</g>
</svg>
