<?xml version="1.0" encoding="utf-8"?>
<!-- Generator: Adobe Illustrator 17.0.0, SVG Export Plug-In . SVG Version: 6.00 Build 0)  -->
<!DOCTYPE svg PUBLIC "-//W3C//DTD SVG 1.1//EN" "http://www.w3.org/Graphics/SVG/1.1/DTD/svg11.dtd">
<svg version="1.1" id="Layer_1" xmlns="http://www.w3.org/2000/svg" xmlns:xlink="http://www.w3.org/1999/xlink" x="0px" y="0px"
	 width="189.24px" height="201.535px" viewBox="0 0 189.24 201.535" enable-background="new 0 0 189.24 201.535"
	 xml:space="preserve">
<path fill="#0750A1" d="M94.62,0L33.209,61.411l61.411,61.411l61.411-61.411L94.62,0z M87.143,53.934H61.835l25.308-25.308V53.934z
	 M87.143,68.888v25.308L61.835,68.888H87.143z M102.098,28.626l32.785,32.785l-32.785,32.785V28.626z"/>
<g>
	<path fill="#3E3A39" d="M15.688,160.932c-1.611,1.728-3.852,2.592-6.724,2.592c-2.755,0-4.973-0.957-6.654-2.872v2.557H0V139.43
		h2.311v8.615c1.587-1.844,3.817-2.767,6.689-2.767s5.113,0.888,6.724,2.661c1.494,1.658,2.241,3.841,2.241,6.549
		C17.965,157.173,17.206,159.321,15.688,160.932z M14.078,149.446c-1.168-1.354-2.813-2.031-4.938-2.031
		c-2.289,0-3.999,0.637-5.13,1.909c-1.133,1.272-1.699,3.018-1.699,5.235c0,1.984,0.625,3.618,1.874,4.902s2.912,1.926,4.99,1.926
		c2.101,0,3.724-0.665,4.868-1.996c1.097-1.237,1.646-2.883,1.646-4.938C15.688,152.352,15.151,150.684,14.078,149.446z"/>
	<path fill="#3E3A39" d="M23.252,163.173V139.43h2.311v23.743H23.252z"/>
	<path fill="#3E3A39" d="M46.627,161.072c-1.693,1.658-3.975,2.486-6.846,2.486c-2.872,0-5.137-0.828-6.794-2.486
		c-1.658-1.657-2.486-3.805-2.486-6.443c0-2.638,0.84-4.791,2.521-6.461c1.681-1.669,3.957-2.504,6.829-2.504
		s5.142,0.835,6.811,2.504c1.669,1.67,2.504,3.823,2.504,6.461C49.166,157.267,48.32,159.415,46.627,161.072z M44.999,149.638
		c-1.238-1.248-2.965-1.873-5.183-1.873c-2.195,0-3.911,0.63-5.147,1.891c-1.238,1.261-1.856,2.919-1.856,4.973
		c0,2.031,0.625,3.678,1.874,4.938c1.249,1.261,2.959,1.892,5.13,1.892c2.171,0,3.887-0.631,5.148-1.892
		c1.261-1.26,1.891-2.906,1.891-4.938C46.855,152.551,46.236,150.888,44.999,149.638z"/>
	<path fill="#3E3A39" d="M67.621,162.263c-1.448,0.863-3.175,1.295-5.183,1.295c-2.825,0-5.066-0.787-6.724-2.363
		c-1.658-1.576-2.486-3.671-2.486-6.286c0-2.754,0.846-4.984,2.539-6.688c1.692-1.704,4.044-2.557,7.056-2.557
		c2.591,0,4.623,0.748,6.093,2.241c0.793,0.817,1.377,1.927,1.751,3.327l-2.101,1.016c-0.444-1.611-1.121-2.761-2.031-3.449
		s-2.171-1.033-3.782-1.033c-2.311,0-4.091,0.653-5.34,1.961s-1.874,3.035-1.874,5.183c0,2.008,0.601,3.602,1.804,4.78
		c1.202,1.179,2.889,1.769,5.06,1.769c1.541,0,2.877-0.345,4.01-1.033c1.132-0.688,1.885-1.967,2.259-3.835l2.206,0.911
		C70.34,159.695,69.254,161.283,67.621,162.263z"/>
	<path fill="#3E3A39" d="M90.873,163.173l-8.965-9.245l-3.607,2.521v6.724H75.99V139.43h2.311v14.358l11.662-8.16l4.062,0.105
		l-10.261,6.898l10.261,10.541H90.873z"/>
	<path fill="#3E3A39" d="M111.64,162.263c-1.448,0.863-3.176,1.295-5.184,1.295c-2.824,0-5.065-0.787-6.724-2.363
		c-1.657-1.576-2.486-3.671-2.486-6.286c0-2.754,0.847-4.984,2.539-6.688s4.045-2.557,7.057-2.557c2.592,0,4.622,0.748,6.093,2.241
		c0.794,0.817,1.378,1.927,1.751,3.327l-2.101,1.016c-0.444-1.611-1.121-2.761-2.031-3.449s-2.171-1.033-3.782-1.033
		c-2.312,0-4.092,0.653-5.34,1.961c-1.25,1.308-1.874,3.035-1.874,5.183c0,2.008,0.601,3.602,1.804,4.78
		c1.202,1.179,2.889,1.769,5.061,1.769c1.54,0,2.877-0.345,4.01-1.033c1.132-0.688,1.885-1.967,2.258-3.835l2.207,0.911
		C114.358,159.695,113.273,161.283,111.64,162.263z"/>
	<path fill="#3E3A39" d="M133.526,163.173v-11.346c0-1.447-0.455-2.545-1.366-3.292c-0.91-0.747-2.171-1.121-3.782-1.121
		c-1.891,0-3.373,0.549-4.447,1.646s-1.61,2.545-1.61,4.342v9.771h-2.312V139.43h2.312v8.09c1.424-1.494,3.432-2.241,6.022-2.241
		c2.125,0,3.864,0.502,5.219,1.506c1.517,1.12,2.275,2.696,2.275,4.728v11.661H133.526z"/>
	<path fill="#3E3A39" d="M156.604,163.208v-2.486c-1.635,1.891-3.922,2.836-6.864,2.836c-2.778,0-4.984-0.863-6.618-2.591
		c-1.494-1.634-2.241-3.735-2.241-6.304c0-2.614,0.759-4.739,2.276-6.373c1.634-1.751,3.875-2.627,6.724-2.627
		c2.871,0,5.112,0.911,6.724,2.731v-2.661h2.312v17.475H156.604z M154.835,149.621c-1.179-1.236-2.889-1.855-5.13-1.855
		c-2.078,0-3.713,0.678-4.903,2.031c-1.098,1.261-1.646,2.883-1.646,4.867c0,2.008,0.548,3.619,1.646,4.833
		c1.167,1.308,2.802,1.961,4.903,1.961c2.077,0,3.747-0.648,5.007-1.943c1.261-1.296,1.892-2.912,1.892-4.851
		C156.604,152.54,156.014,150.859,154.835,149.621z"/>
	<path fill="#3E3A39" d="M166.233,143.387c-0.49,0-0.853-0.291-1.086-0.875v-2.521c0.28-0.583,0.642-0.875,1.086-0.875
		c0.373,0,0.781,0.257,1.226,0.77v2.732C167.038,143.131,166.63,143.387,166.233,143.387z M165.147,163.173v-17.51h2.312v17.51
		H165.147z"/>
	<path fill="#3E3A39" d="M186.93,163.173v-11.101c0-1.401-0.455-2.47-1.366-3.205c-0.91-0.735-2.171-1.103-3.782-1.103
		c-1.891,0-3.373,0.537-4.447,1.61c-1.074,1.074-1.61,2.486-1.61,4.237v9.561h-2.312v-17.124h2.312v1.82
		c1.424-1.471,3.432-2.206,6.022-2.206c2.125,0,3.864,0.49,5.219,1.471c1.517,1.098,2.275,2.639,2.275,4.623v11.416H186.93z"/>
	<path fill="#3E3A39" d="M28.243,201.08h-1.926l-8.545-17.089h2.626l6.829,14.007l6.339-14.007h2.521L28.243,201.08z"/>
	<path fill="#3E3A39" d="M41.095,193.411c0.303,3.969,2.556,5.953,6.758,5.953c3.269,0,5.428-1.343,6.479-4.027h2.381
		c-0.771,2.405-1.996,4.051-3.677,4.938c-1.495,0.794-3.246,1.19-5.253,1.19c-2.965,0-5.23-0.828-6.794-2.486
		c-1.448-1.54-2.171-3.677-2.171-6.408c0-2.591,0.817-4.739,2.451-6.443c1.634-1.704,3.864-2.557,6.689-2.557
		c2.754,0,4.966,0.753,6.636,2.259c1.669,1.506,2.504,3.543,2.504,6.111v1.436L41.095,193.411z M52.826,187.422
		c-1.19-1.167-2.813-1.751-4.867-1.751c-1.845,0-3.374,0.49-4.588,1.471s-1.949,2.37-2.206,4.167h13.412
		C54.437,189.722,53.853,188.426,52.826,187.422z"/>
	<path fill="#3E3A39" d="M75.343,201.08v-11.101c0-1.401-0.455-2.47-1.366-3.205c-0.91-0.735-2.171-1.103-3.782-1.103
		c-1.891,0-3.374,0.537-4.448,1.61c-1.074,1.074-1.611,2.486-1.611,4.237v9.561h-2.311v-17.124h2.311v1.82
		c1.424-1.471,3.432-2.206,6.023-2.206c2.124,0,3.864,0.49,5.218,1.471c1.518,1.098,2.276,2.639,2.276,4.623v11.416H75.343z"/>
	<path fill="#3E3A39" d="M88.195,186.722v14.357h-2.241l-0.07-14.357h-3.501v-2.137h3.501v-5.008h2.312v5.008h3.537v2.137H88.195z"
		/>
	<path fill="#3E3A39" d="M109.941,201.115v-1.856c-1.471,1.471-3.479,2.206-6.023,2.206c-2.265,0-4.062-0.536-5.393-1.61
		c-1.401-1.144-2.102-2.755-2.102-4.833v-11.03h2.312v10.995c0,2.919,1.728,4.378,5.183,4.378c2.008,0,3.524-0.572,4.553-1.716
		c0.98-1.051,1.471-2.521,1.471-4.413v-9.244h2.311v17.124H109.941z"/>
	<path fill="#3E3A39" d="M122.093,188.297c-0.98,1.519-1.471,3.467-1.471,5.849v6.934h-2.312v-17.124h2.312v2.346
		c1.634-1.82,4.12-2.731,7.459-2.731v2.102C125.256,185.671,123.26,186.546,122.093,188.297z"/>
	<path fill="#3E3A39" d="M134.104,193.411c0.304,3.969,2.557,5.953,6.759,5.953c3.269,0,5.428-1.343,6.479-4.027h2.382
		c-0.771,2.405-1.996,4.051-3.678,4.938c-1.494,0.794-3.245,1.19-5.253,1.19c-2.965,0-5.229-0.828-6.793-2.486
		c-1.448-1.54-2.172-3.677-2.172-6.408c0-2.591,0.817-4.739,2.452-6.443c1.634-1.704,3.863-2.557,6.688-2.557
		c2.754,0,4.967,0.753,6.636,2.259s2.504,3.543,2.504,6.111v1.436L134.104,193.411z M145.835,187.422
		c-1.19-1.167-2.813-1.751-4.867-1.751c-1.845,0-3.374,0.49-4.588,1.471s-1.949,2.37-2.206,4.167h13.412
		C147.446,189.722,146.862,188.426,145.835,187.422z"/>
	<path fill="#3E3A39" d="M167.092,200.554c-1.238,0.653-2.837,0.98-4.798,0.98c-5.37,0-8.055-2.439-8.055-7.318h2.382
		c0,1.844,0.449,3.163,1.348,3.957s2.353,1.19,4.36,1.19c1.377,0,2.498-0.21,3.361-0.631c1.027-0.513,1.541-1.271,1.541-2.275
		c0-1.237-1.098-2.102-3.292-2.592c-0.163-0.023-1.33-0.198-3.502-0.525c-3.642-0.537-5.463-2.101-5.463-4.692
		c0-1.681,0.724-2.988,2.172-3.922c1.261-0.794,2.777-1.191,4.552-1.191c5.184,0,7.786,2.184,7.81,6.549h-2.416
		c0-1.563-0.409-2.685-1.226-3.361c-0.817-0.677-2.148-1.016-3.992-1.016c-1.238,0-2.276,0.233-3.117,0.7
		c-0.934,0.561-1.4,1.308-1.4,2.241c0,1.214,1.062,2.008,3.187,2.381c0.606,0.117,1.844,0.327,3.712,0.631
		c3.572,0.607,5.358,2.206,5.358,4.798C169.613,198.278,168.772,199.644,167.092,200.554z"/>
</g>
</svg>
